
        <svg xmlns="http://www.w3.org/2000/svg" x="0px" y="0px" width="100" height="100" viewBox="0 0 64 64">
            <linearGradient id="MV_McU6nuAgnp2hm4rFqua_1NbU1h0xcTiZ_gr1" x1="31" x2="31" y1="9" y2="55"
                            gradientUnits="userSpaceOnUse">
                <stop offset="0" stop-color="#1a6dff"></stop>
                <stop offset="1" stop-color="#c822ff"></stop>
            </linearGradient>
            <path fill="url(#MV_McU6nuAgnp2hm4rFqua_1NbU1h0xcTiZ_gr1)"
                  d="M52,13h-3.098C48.449,10.694,46.457,9,44,9H20c-2.8,0-5,2.2-5,5v5H9.4C7.5,19,6,20.5,6,22.4	v19.2C6,43.5,7.5,45,9.4,45H15v5c0,2.8,2.2,5,5,5h24c2.457,0,4.449-1.694,4.902-4H52c2.206,0,4-1.794,4-4V17	C56,14.794,54.206,13,52,13z M9.4,43C8.6,43,8,42.4,8,41.6V22.4C8,21.6,8.6,21,9.4,21h19.2c0.8,0,1.4,0.6,1.4,1.4v19.2	c0,0.8-0.6,1.4-1.4,1.4H9.4z M47,50c0,1.7-1.3,3-3,3H20c-1.7,0-3-1.3-3-3v-5h11.6c1.9,0,3.4-1.5,3.4-3.4V22.4c0-1.9-1.5-3.4-3.4-3.4	H17v-5c0-1.7,1.3-3,3-3h24c1.7,0,3,1.3,3,3V50z M54,47c0,1.103-0.897,2-2,2h-3V15h3c1.103,0,2,0.897,2,2V47z"></path>
            <linearGradient id="MV_McU6nuAgnp2hm4rFqub_1NbU1h0xcTiZ_gr2" x1="33.5" x2="33.5" y1="15.71" y2="50.741"
                            gradientUnits="userSpaceOnUse">
                <stop offset="0" stop-color="#6dc7ff"></stop>
                <stop offset="1" stop-color="#e6abff"></stop>
            </linearGradient>
            <path fill="url(#MV_McU6nuAgnp2hm4rFqub_1NbU1h0xcTiZ_gr2)"
                  d="M17,38h-2V26h6c2.206,0,4,1.794,4,4s-1.794,4-4,4h-4V38z M17,32h4c1.103,0,2-0.897,2-2	s-0.897-2-2-2h-4V32z M45,33H34v8h11V33z M33.9,43c-0.46,2.28-2.48,4-4.9,4H19v2.5c0,0.83,0.67,1.5,1.5,1.5h23	c0.83,0,1.5-0.67,1.5-1.5V43H33.9z M51,47c0.552,0,1-0.448,1-1V18c0-0.552-0.448-1-1-1h-2v30H51z"></path>
        </svg>
